<?xml version="1.0" encoding="utf-8"?>
<!-- Generator: Adobe Illustrator 21.1.0, SVG Export Plug-In . SVG Version: 6.00 Build 0)  -->
<svg version="1.1" id="Layer_1" xmlns="http://www.w3.org/2000/svg" xmlns:xlink="http://www.w3.org/1999/xlink" x="0px" y="0px"
	 viewBox="0 0 500 500" style="enable-background:new 0 0 500 500;" xml:space="preserve">
<style type="text/css">
	.st0{fill:#DDE1DE;}
	.st1{fill:#AFCDC9;}
	.st2{fill:#4A93CF;}
	.st3{fill:#FFFFFF;}
	.st4{fill:#123D65;}
	.st5{fill:#05233B;}
	.st6{clip-path:url(#SVGID_2_);fill:#012F3F;}
	.st7{fill:#0B151D;}
</style>
<g>
	<g>
		<path class="st0" d="M272.6,319.8l-48.3,6.6l-37.7-6.6c4.2,64.8-56.3,94.5-56.3,94.5h99.3h99.3
			C328.9,414.3,268.3,384.6,272.6,319.8z"/>
		<path class="st1" d="M224.2,326.4l-37.7-6.6c1.2,17.9-2.6,33.1-8.7,45.7l111.8,14.3c-10.6-14.9-18.8-34.8-17.1-60L224.2,326.4z"/>
		<path class="st2" d="M441.5,428.3c0,5.8-4.7,10.6-10.6,10.6H30c-5.8,0-10.6-4.7-10.6-10.6l0,0c0-5.8,4.7-10.6,10.6-10.6h400.9
			C436.8,417.7,441.5,422.5,441.5,428.3L441.5,428.3z"/>
		<path class="st3" d="M339,417.7c0,5.8-4.7,10.6-10.6,10.6H133.5c-5.8,0-10.6-4.7-10.6-10.6l0,0c0-5.8,4.7-10.6,10.6-10.6h194.9
			C334.3,407.1,339,411.9,339,417.7L339,417.7z"/>
	</g>
	<path class="st3" d="M463.8,358.6c-2.3,17.8-18.6,30.4-36.4,28.2L37.5,337.1C19.6,334.8,7,318.5,9.3,300.7L36.2,89.5
		c2.3-17.8,18.6-30.4,36.4-28.2l389.9,49.7c17.8,2.3,30.4,18.6,28.2,36.4L463.8,358.6z"/>
	<path class="st4" d="M462.5,111.1L72.6,61.4c-17.8-2.3-34.1,10.3-36.4,28.2L9.3,300.7c-0.1,0.5-0.1,0.9-0.1,1.4L463.5,360
		c0.1-0.5,0.2-0.9,0.2-1.3l26.9-211.1C493,129.7,480.4,113.4,462.5,111.1z"/>
	
		<rect x="150.2" y="2.9" transform="matrix(0.1265 -0.992 0.992 0.1265 6.0678 436.9695)" class="st5" width="201.9" height="424.3"/>
	<g>
		<defs>
			
				<rect id="SVGID_1_" x="150.2" y="2.9" transform="matrix(0.1265 -0.992 0.992 0.1265 6.0678 436.9695)" width="201.9" height="424.3"/>
		</defs>
		<clipPath id="SVGID_2_">
			<use xlink:href="#SVGID_1_"  style="overflow:visible;"/>
		</clipPath>
		<path class="st6" d="M555.5,338.7l-13-18.9l-17.3,15.1l-13-18.9l-17.3,15.1l-12.9-18.9l-17.3,15.1L452,308.3l-17.3,15.1
			l-12.9-18.9l-17.3,15.1l-12.9-18.9l-17.3,15.1l-12.9-18.9l-17.3,15.1L331.2,293L313.9,308L301,289.1l-17.3,15.1l-12.9-18.9
			l-17.3,15.1l-12.9-18.9l-17.3,15.1l-12.9-18.9l-17.3,15.1l-12.9-18.9L163,288.9L150.1,270L132.8,285l-12.9-18.9l-17.3,15.1
			l-12.9-18.9l-17.3,15.1l-12.9-18.9l-17.3,15.1l-12.9-18.9l-17.3,15.1l-12.9-18.9l-17.3,15.1L-31.1,247L-48.3,262l-12.9-18.9
			l-17.2,15.1l-12.9-18.9l-17.2,15.1l-12.9-18.9l-17.2,15.1l-12.9-18.9l-17.2,15.1l-10.2-14.9l-7.1,4.8l15.7,22.9l17.2-15.1
			l12.9,18.9l17.3-15.1l12.9,18.9l17.3-15.1l12.9,18.9l17.3-15.1l12.9,18.9l17.3-15.1l12.9,18.9l17.3-15.1l12.9,18.9l17.3-15.1
			l12.9,18.9l17.3-15.1l12.9,18.9l17.3-15.1L101,294l17.3-15.1l12.9,18.9l17.3-15.1l12.9,18.9l17.3-15.1l12.9,18.9l17.3-15.1
			l12.9,18.9l17.3-15.1l12.9,18.9l17.3-15.1l12.9,18.9l17.3-15.1l12.9,18.9l17.3-15.1l12.9,18.9l17.3-15.1l12.9,18.9l17.3-15.1
			l12.9,18.9l17.3-15.1l12.9,18.9l17.3-15.1l12.9,18.9l17.3-15.1l12.9,18.9l17.3-15.1l13,18.9l17.3-15.1l13,18.9l20.9-18.3l-5.6-6.5
			L555.5,338.7z M559,311.3l-13-18.9l-17.3,15.1l-13-18.9l-17.3,15.1l-12.9-18.9l-17.3,15.1l-12.9-18.9l-17.3,15.1L425.3,277
			L408,292.1l-12.9-18.9l-17.3,15.1l-12.9-18.9l-17.3,15.1l-12.9-18.9l-17.3,15.1l-12.9-18.9l-17.3,15.1l-12.9-18.9l-17.3,15.1
			L244.1,254l-17.3,15.1l-12.9-18.9l-17.3,15.1l-12.9-18.9l-17.3,15.1l-12.9-18.9l-17.3,15.1l-12.9-18.9l-17.3,15.1l-12.9-18.9
			l-17.2,15.1L63,231l-17.3,15.1l-12.9-18.9l-17.3,15.1L2.6,223.3l-17.3,15.1l-12.9-18.9l-17.3,15.1l-12.9-18.9L-75,230.8
			l-12.9-18.9l-17.3,15.1l-12.9-18.9l-17.2,15.1l-12.9-18.9l-17.2,15.1l-10.2-14.9l-7.1,4.8l15.7,22.9l17.2-15.1l12.9,18.9
			l17.2-15.1l12.9,18.9l17.3-15.1l12.9,18.9l17.2-15.1l12.9,18.9l17.3-15.1l12.9,18.9L1,236.1l12.9,18.9L31.2,240l12.9,18.9
			l17.3-15.1l12.9,18.9l17.3-15.1l12.9,18.9l17.3-15.1l12.9,18.9l17.3-15.1l12.9,18.9l17.3-15.1l12.9,18.9l17.3-15.1l12.9,18.9
			l17.3-15.1l12.9,18.9l17.3-15.1l12.9,18.9l17.3-15.1l12.9,18.9l17.3-15.1l12.9,18.9l17.3-15.1l12.9,18.9l17.3-15.1l12.9,18.9
			l17.3-15.1l12.9,18.9l17.3-15.1l12.9,18.9l17.3-15.1l12.9,18.9l17.3-15.1l12.9,18.9l17.3-15.1l13,18.9l20.9-18.3l-5.6-6.5
			L559,311.3z M562.5,283.8l-13-18.9L532.3,280l-13-18.9l-17.3,15.1l-12.9-18.9l-17.3,15.1L459,253.4l-17.3,15.1l-12.9-18.9
			l-17.3,15.1l-12.9-18.9l-17.3,15.1l-12.9-18.9L351.1,257L338.2,238l-17.3,15.1L308,234.2l-17.3,15.1l-12.9-18.9l-17.3,15.1
			l-12.9-18.9l-17.3,15.1l-12.9-18.9l-17.3,15.1l-12.9-18.9L170,234L157,215l-17.3,15.1l-12.9-18.9l-17.3,15.1l-12.9-18.9
			l-17.3,15.1l-12.9-18.9l-17.3,15.1l-12.9-18.9L19,214.8L6.1,195.9L-11.1,211L-24.1,192l-17.3,15.1l-12.9-18.9l-17.2,15.1
			l-12.9-18.9l-17.3,15.1l-12.9-18.9l-17.2,15.1l-12.9-18.9l-17.2,15.1l-10.2-14.9l-7.1,4.8l15.7,22.9l17.2-15.1l12.9,18.9
			l17.2-15.1l12.9,18.9l17.2-15.1l12.9,18.9l17.2-15.1l12.9,18.9l17.3-15.1l12.9,18.9l17.3-15.1l12.9,18.9l17.3-15.1l12.9,18.9
			l17.3-15.1l12.9,18.9L95,220.2l12.9,18.9l17.3-15.1l12.9,18.9l17.3-15.1l12.9,18.9l17.3-15.1l12.9,18.9l17.3-15.1l12.9,18.9
			l17.3-15.1l12.9,18.9l17.3-15.1l12.9,18.9l17.3-15.1l12.9,18.9l17.3-15.1l12.9,18.9l17.3-15.1l12.9,18.9l17.3-15.1l12.9,18.9
			l17.3-15.1l12.9,18.9l17.3-15.1l12.9,18.9l17.3-15.1l12.9,18.9l17.3-15.1l13,18.9l17.3-15.1l13,18.9l20.9-18.2l-5.6-6.5
			L562.5,283.8z M548.6,393.7l-13-18.9l-17.3,15.1l-13-18.9L488.1,386l-12.9-18.9l-17.3,15.1L445,363.2l-17.3,15.1l-12.9-18.9
			l-17.3,15.1l-12.9-18.9l-17.3,15.1l-12.9-18.9l-17.3,15.1l-12.9-18.9L307,363L294,344.1l-17.3,15.1l-12.9-18.9l-17.3,15.1
			l-12.9-18.9l-17.3,15.1l-12.9-18.9l-17.3,15.1l-12.9-18.9L156,343.8l-12.9-18.9L125.8,340l-12.9-18.9l-17.3,15.1l-12.9-18.9
			l-17.3,15.1l-12.9-18.9l-17.3,15.1l-12.9-18.9L5.1,324.6l-12.9-18.9l-17.3,15.1L-38,301.9L-55.3,317l-12.9-18.9l-17.3,15.1
			l-12.9-18.9l-17.3,15.1l-12.9-18.9l-17.2,15.1l-12.9-18.9l-17.2,15.1l-10.2-14.9l-7.1,4.8l15.7,22.9l17.3-15.1l12.9,18.9
			l17.2-15.1l12.9,18.9L-100,307l12.9,18.9l17.2-15.1l12.9,18.9l17.3-15.1l12.9,18.9l17.3-15.1l12.9,18.9l17.3-15.1l12.9,18.9
			l17.3-15.1l12.9,18.9L81.1,330L94,348.9l17.3-15.1l12.9,18.9l17.3-15.1l12.9,18.9l17.2-15.1l12.9,18.9l17.3-15.1l12.9,18.9
			l17.3-15.1l12.9,18.9l17.3-15.1l12.9,18.9l17.3-15.1l12.9,18.9l17.3-15.1l12.9,18.9l17.3-15.1l12.9,18.9l17.3-15.1l12.9,18.9
			l17.3-15.1l12.9,18.9l17.3-15.1l12.9,18.9l17.3-15.1l12.9,18.9l17.3-15.1l13,18.9l17.3-15.1l13,18.9l20.9-18.3l-5.6-6.5
			L548.6,393.7z M-125.5,24.7l12.9,18.9l17.2-15.1l12.9,18.9l17.2-15.1l12.9,18.9L-35,36.2L-22,55.2l17.3-15.1L8.2,59l17.3-15.1
			l12.9,18.9l17.3-15.1l12.9,18.9l17.3-15.1l12.9,18.9L116,55.4l12.9,18.9l17.3-15.1l12.9,18.9l17.3-15.1L189.3,82l17.2-15.1
			l12.9,18.9l17.3-15.1l12.9,18.9l17.3-15.1l12.9,18.9l17.3-15.1L310,97.3l17.3-15.1l12.9,18.9l17.3-15.1l12.9,18.9l17.3-15.1
			l12.9,18.9l17.3-15.1l12.9,18.9l17.3-15.1l12.9,18.9l17.3-15.1l12.9,18.9l17.3-15.1l12.9,18.9l17.3-15.1l13,18.9l17.3-15.1
			l13,18.9l20.9-18.3l-5.6-6.5L583.4,119l-13-18.9l-17.3,15.1l-13-18.9L523,111.4l-12.9-18.9l-17.3,15.1l-12.9-18.9l-17.3,15.1
			l-12.9-18.9l-17.3,15.1l-12.9-18.9L402.2,96l-12.9-18.9L372,92.2l-12.9-18.9l-17.3,15.1l-12.9-18.9l-17.3,15.1l-12.9-18.9
			l-17.3,15.1l-12.9-18.9l-17.3,15.1l-12.9-18.9L221.1,73l-12.9-18.9l-17.3,15.1L178,50.3l-17.3,15.1l-12.9-18.9l-17.3,15.1
			l-12.9-18.9l-17.3,15.1L87.4,38.8L70.1,53.9L57.2,34.9L40,50L27,31.1L9.8,46.2L-3.2,27.3l-17.3,15.1l-12.9-18.9l-17.3,15.1
			l-12.9-18.9l-17.3,15.1l-12.9-18.9L-111,30.9l-12.9-18.9L-141.1,27l-10.2-14.9l-7.1,4.8l15.7,22.9L-125.5,24.7z M552.1,366.2
			l-13-18.9l-17.3,15.1l-12.9-18.9l-17.3,15.1l-12.9-18.9l-17.3,15.1l-12.9-18.9l-17.3,15.1l-12.9-18.9L401,347l-12.9-18.9
			l-17.3,15.1l-12.9-18.9l-17.3,15.1l-12.9-18.9l-17.3,15.1l-12.9-18.9l-17.3,15.1l-12.9-18.9l-17.3,15.1l-12.9-18.9L219.9,324
			L207,305.1l-17.3,15.1l-12.9-18.9l-17.3,15.1l-12.9-18.9l-17.3,15.1l-12.9-18.9l-17.3,15.1l-12.9-18.9L69,304.8L56,285.9L38.8,301
			l-12.9-18.9L8.6,297.2l-12.9-18.9l-17.3,15.1l-12.9-18.9l-17.3,15.1l-12.9-18.9L-82,285.7l-12.9-18.9l-17.3,15.1l-12.9-18.9
			l-17.3,15.1l-12.9-18.9l-17.2,15.1l-10.2-14.9l-7.1,4.8l15.7,22.9l17.2-15.1l12.9,18.9l17.2-15.1l12.9,18.9l17.2-15.1l12.9,18.9
			l17.2-15.1l12.9,18.9l17.3-15.1l12.9,18.9L-6,291.1L7,310l17.3-15.1l12.9,18.9l17.3-15.1l12.9,18.9l17.3-15.1l12.9,18.9l17.3-15.1
			l12.9,18.9l17.3-15.1l12.9,18.9l17.2-15.1l12.9,18.9l17.3-15.1l12.9,18.9l17.3-15.1l12.9,18.9l17.3-15.1l12.9,18.9l17.3-15.1
			l12.9,18.9l17.3-15.1l12.9,18.9l17.3-15.1l12.9,18.9l17.3-15.1l12.9,18.9l17.3-15.1l12.9,18.9l17.3-15.1l12.9,18.9l17.3-15.1
			l12.9,18.9l17.3-15.1l13,18.9l17.3-15.1l13,18.9l20.9-18.2l-5.6-6.5L552.1,366.2z M579.9,146.5l-13-18.9l-17.3,15.1l-13-18.9
			l-17.3,15.1l-12.9-18.9L489.3,135l-12.9-18.9l-17.3,15.1l-12.9-18.9l-17.3,15.1L416,108.4l-17.3,15.1l-12.9-18.9l-17.3,15.1
			l-12.9-18.9l-17.3,15.1l-12.9-18.9L308.2,112l-12.9-18.9L278,108.1L265,89.2l-17.3,15.1l-12.9-18.9l-17.3,15.1l-12.9-18.9
			l-17.3,15.1l-12.9-18.9l-17.3,15.1l-12.9-18.9L127,89l-12.9-18.9L96.9,85.1L83.9,66.2L66.7,81.3L53.7,62.4L36.5,77.5L23.5,58.6
			L6.3,73.6L-6.6,54.7l-17.3,15.1l-12.9-18.9L-54.1,66L-67,47.1l-17.3,15.1l-12.9-18.9l-17.2,15.1l-12.9-18.9l-17.2,15.1l-10.2-14.9
			l-7.1,4.8l15.7,22.9l17.3-15.1l12.9,18.9L-98.8,56L-85.9,75l17.3-15.1l12.9,18.9l17.2-15.1l12.9,18.9l17.3-15.1L4.7,86.5
			l17.3-15.1l12.9,18.9l17.3-15.1L65,94.1L82.3,79L95.2,98l17.3-15.1l12.9,18.9l17.3-15.1l12.9,18.9l17.3-15.1l12.9,18.9L203,94.4
			l12.9,18.9l17.3-15.1l12.9,18.9l17.3-15.1l12.9,18.9l17.3-15.1l12.9,18.9l17.3-15.1l12.9,18.9l17.3-15.1l12.9,18.9l17.3-15.1
			l12.9,18.9l17.3-15.1l12.9,18.9l17.3-15.1l12.9,18.9l17.3-15.1l12.9,18.9l17.3-15.1l12.9,18.9l17.3-15.1l12.9,18.9l17.3-15.1
			l13,18.9l20.9-18.2l-5.6-6.5L579.9,146.5z M576.5,174l-13-18.9l-17.3,15.1l-12.9-18.9L516,166.3l-12.9-18.9l-17.3,15.1l-12.9-18.9
			l-17.3,15.1l-12.9-18.9l-17.3,15.1l-12.9-18.9l-17.3,15.1L382.3,132l-17.3,15.1l-12.9-18.9l-17.3,15.1l-12.9-18.9l-17.3,15.1
			l-12.9-18.9l-17.3,15.1l-12.9-18.9l-17.3,15.1l-12.9-18.9l-17.3,15.1L201.2,109l-17.2,15.1L171,105.2l-17.3,15.1l-12.9-18.9
			l-17.3,15.1l-12.9-18.9l-17.3,15.1L80.4,93.7l-17.3,15.1L50.2,89.9L33,104.9L20.1,86L2.8,101.1l-12.9-18.9l-17.3,15.1l-12.9-18.9
			l-17.2,15.1l-12.9-18.9l-17.3,15.1l-12.9-18.9l-17.2,15.1l-12.9-18.9l-17.3,15.1L-158.3,67l-7.1,4.8l15.7,22.9l17.2-15.1
			l12.9,18.9l17.2-15.1l12.9,18.9l17.3-15.1l12.9,18.9l17.2-15.1l12.9,18.9L-11.8,95l12.9,18.9l17.3-15.1l12.9,18.9l17.3-15.1
			l12.9,18.9l17.3-15.1l12.9,18.9l17.2-15.1l12.9,18.9l17.3-15.1l12.9,18.9l17.3-15.1l12.9,18.9l17.3-15.1l12.9,18.9l17.3-15.1
			l12.9,18.9l17.3-15.1l12.9,18.9l17.3-15.1l12.9,18.9l17.3-15.1l12.9,18.9l17.3-15.1l12.9,18.9l17.3-15.1l12.9,18.9l17.3-15.1
			l12.9,18.9l17.3-15.1l12.9,18.9l17.3-15.1l12.9,18.9l17.3-15.1l12.9,18.9l17.3-15.1l13,18.9l17.3-15.1l13,18.9l20.9-18.3l-5.6-6.5
			L576.5,174z M573,201.4l-13-18.9l-17.3,15.1l-12.9-18.9l-17.3,15.1l-12.9-18.9l-17.3,15.1L469.4,171l-17.3,15.1l-12.9-18.9
			L422,182.2L409,163.3l-17.3,15.1l-12.9-18.9l-17.3,15.1l-12.9-18.9l-17.3,15.1l-12.9-18.9l-17.3,15.1L288.3,148L271,163.1
			l-12.9-18.9l-17.3,15.1l-12.9-18.9l-17.3,15.1l-12.9-18.9l-17.3,15.1l-12.9-18.9l-17.3,15.1l-12.9-18.9l-17.3,15.1L107.1,125
			l-17.3,15.1l-12.9-18.9l-17.3,15.1l-12.9-18.9l-17.3,15.1l-12.9-18.9l-17.3,15.1l-12.9-18.9l-17.3,15.1l-12.9-18.9l-17.2,15.1
			L-74,102l-17.3,15.1l-12.9-18.9l-17.2,15.1l-12.9-18.9l-17.2,15.1l-10.2-14.9l-7.1,4.8l15.7,22.9l17.2-15.1L-123,126l17.2-15.1
			l12.9,18.9l17.2-15.1l12.9,18.9l17.2-15.1l12.9,18.9l17.3-15.1l12.9,18.9l17.3-15.1l12.9,18.9l17.3-15.1L58.1,149L75.3,134
			l12.9,18.9l17.3-15.1l12.9,18.9l17.3-15.1l12.9,18.9l17.3-15.1l12.9,18.9l17.3-15.1l12.9,18.9l17.3-15.1l12.9,18.9l17.3-15.1
			l12.9,18.9l17.3-15.1l12.9,18.9l17.3-15.1l12.9,18.9l17.3-15.1l12.9,18.9l17.3-15.1l12.9,18.9l17.3-15.1l12.9,18.9l17.3-15.1
			l12.9,18.9l17.3-15.1l12.9,18.9l17.3-15.1l12.9,18.9l17.3-15.1l12.9,18.9l17.3-15.1l13,18.9l20.9-18.2l-5.6-6.5L573,201.4z
			 M569.5,228.9l-13-18.9L539.3,225l-13-18.9l-17.3,15.1l-12.9-18.9l-17.3,15.1l-12.9-18.9l-17.3,15.1l-12.9-18.9l-17.3,15.1
			l-12.9-18.9l-17.3,15.1L375.3,187L358.1,202l-12.9-18.9l-17.3,15.1L315,179.3l-17.3,15.1l-12.9-18.9l-17.3,15.1l-12.9-18.9
			l-17.3,15.1l-12.9-18.9l-17.3,15.1L194.2,164L177,179L164,160.1l-17.3,15.1l-12.9-18.9l-17.3,15.1l-12.9-18.9l-17.2,15.1
			l-12.9-18.9l-17.3,15.1l-12.9-18.9L26,159.9L13.1,141L-4.2,156l-12.9-18.9l-17.3,15.1l-12.9-18.9l-17.2,15.1l-12.9-18.9
			l-17.3,15.1l-12.9-18.9l-17.2,15.1l-12.9-18.9l-17.2,15.1l-10.2-14.9l-7.1,4.8l15.7,22.9l17.2-15.1l12.9,18.9l17.2-15.1l12.9,18.9
			l17.3-15.1l12.9,18.9l17.2-15.1L-36,165l17.3-15.1l12.9,18.9l17.3-15.1l12.9,18.9l17.3-15.1l12.9,18.9l17.3-15.1l12.9,18.9
			l17.3-15.1l12.9,18.9l17.3-15.1l12.9,18.9l17.3-15.1l12.9,18.9l17.3-15.1l12.9,18.9l17.3-15.1l12.9,18.9l17.3-15.1l12.9,18.9
			l17.3-15.1l12.9,18.9l17.3-15.1l12.9,18.9l17.3-15.1l12.9,18.9l17.3-15.1l12.9,18.9l17.3-15.1l12.9,18.9l17.3-15.1l12.9,18.9
			l17.3-15.1l12.9,18.9l17.3-15.1l12.9,18.9l17.3-15.1l13,18.9l17.3-15.1l13,18.9l20.9-18.3l-5.6-6.5L569.5,228.9z M566,256.3
			l-13-18.9l-17.3,15.1l-13-18.9l-17.3,15.1l-12.9-18.9l-17.3,15.1l-12.9-18.9L445.2,241l-12.9-18.9L415,237.2L402,218.2l-17.3,15.1
			l-12.9-18.9l-17.3,15.1l-12.9-18.9l-17.3,15.1l-12.9-18.9l-17.3,15.1l-12.9-18.9L264,218l-12.9-18.9l-17.3,15.1l-12.9-18.9
			l-17.3,15.1l-12.9-18.9l-17.3,15.1l-12.9-18.9l-17.3,15.1l-12.9-18.9l-17.3,15.1l-12.9-18.9L82.9,195L70,176.1l-17.3,15.1
			l-12.9-18.9l-17.3,15.1L9.6,168.4l-17.3,15.1l-12.9-18.9l-17.3,15.1l-12.9-18.9L-68,175.8L-81,156.9L-98.2,172l-12.9-18.9
			l-17.3,15.1l-12.9-18.9l-17.2,15.1l-10.2-14.9l-7.1,4.8l15.7,22.9l17.2-15.1L-130,181l17.2-15.1l12.9,18.9l17.3-15.1l12.9,18.9
			l17.2-15.1l12.9,18.9l17.3-15.1l12.9,18.9L8,181.2l12.9,18.9l17.3-15.1L51.1,204l17.3-15.1l12.9,18.9l17.2-15.1l12.9,18.9
			l17.3-15.1l12.9,18.9l17.3-15.1l12.9,18.9l17.3-15.1l12.9,18.9l17.3-15.1l12.9,18.9l17.3-15.1l12.9,18.9l17.3-15.1l12.9,18.9
			l17.3-15.1l12.9,18.9l17.3-15.1l12.9,18.9l17.3-15.1l12.9,18.9l17.3-15.1l12.9,18.9l17.3-15.1l12.9,18.9l17.3-15.1l12.9,18.9
			l17.3-15.1l12.9,18.9l17.3-15.1l13,18.9l17.3-15.1l13,18.9l20.9-18.3l-5.6-6.5L566,256.3z"/>
	</g>
	<g>
		<g>
			<path class="st3" d="M114.5,216.7c-4,3.1-9.8,2.4-12.9-1.7l0,0c-3.1-4-2.4-9.8,1.6-12.9l74.1-57.3c4-3.1,9.8-2.4,12.9,1.7l0,0
				c3.1,4,2.4,9.8-1.6,12.9L114.5,216.7z"/>
			<path class="st3" d="M181.9,212.1c3.1,4,2.4,9.8-1.6,12.9l0,0c-4,3.1-9.8,2.4-12.9-1.6L110,149.3c-3.1-4-2.4-9.8,1.6-12.9l0,0
				c4-3.1,9.8-2.4,12.9,1.6L181.9,212.1z"/>
		</g>
		<g>
			<path class="st3" d="M330.2,244.2c-4,3.1-9.8,2.4-12.9-1.6l0,0c-3.1-4-2.4-9.8,1.6-12.9l74.1-57.3c4-3.1,9.8-2.4,12.9,1.6l0,0
				c3.1,4,2.4,9.8-1.6,12.9L330.2,244.2z"/>
			<path class="st3" d="M397.6,239.6c3.1,4,2.4,9.8-1.6,12.9l0,0c-4,3.1-9.8,2.4-12.9-1.6l-57.3-74.1c-3.1-4-2.4-9.8,1.6-12.9l0,0
				c4-3.1,9.8-2.4,12.9,1.6L397.6,239.6z"/>
		</g>
	</g>
	<g>
		<path class="st3" d="M282.4,309.8c-5.7-0.7-9.7-5.9-9-11.6c2.3-17.9-10.4-34.3-28.3-36.5c-17.9-2.3-34.3,10.4-36.5,28.3
			c-0.7,5.7-5.9,9.7-11.6,9c-5.7-0.7-9.7-5.9-9-11.6c3.7-29.2,30.5-49.9,59.7-46.2c29.2,3.7,49.9,30.5,46.2,59.7
			C293.3,306.5,288.1,310.5,282.4,309.8z"/>
	</g>
	<path class="st5" d="M285.8,104.3c-0.3,2.2-2.3,3.8-4.6,3.5l-30.1-3.8c-2.2-0.3-3.8-2.3-3.5-4.6l0,0c0.3-2.2,2.3-3.8,4.6-3.5
		l30.1,3.8C284.5,100,286.1,102,285.8,104.3L285.8,104.3z"/>
	<ellipse transform="matrix(0.1262 -0.992 0.992 0.1262 121.0491 337.2557)" class="st7" cx="252" cy="99.9" rx="2.2" ry="2.2"/>
</g>
<text transform="matrix(1 0 0 1 -357.6324 55.6148)" class="st3" style="font-family:'Quicksand-Regular'; font-size:9.7133px;">THE PAGE YOU REQUESTED WAS NOT  FOUND!</text>
</svg>
